<svg id="share-icon" xmlns="http://www.w3.org/2000/svg" width="17.942" height="19.437" viewBox="0 0 17.942 19.437">
  <g id="Icon-Set">
    <path id="share" d="M326.2,743.942a2.243,2.243,0,1,1,2.243-2.243,2.243,2.243,0,0,1-2.243,2.243Zm-10.466-5.981a2.243,2.243,0,1,1,2.243-2.243,2.243,2.243,0,0,1-2.243,2.243ZM326.2,727.5a2.243,2.243,0,1,1-2.243,2.243A2.243,2.243,0,0,1,326.2,727.5Zm0,10.466a3.727,3.727,0,0,0-3.143,1.728l-4-2.288a3.51,3.51,0,0,0,.242-2.758l4.165-2.38a3.922,3.922,0,1,0-.823-1.452l-4.165,2.379a3.742,3.742,0,1,0-.482,5.489l-.015.028,4.527,2.587a3.6,3.6,0,0,0-.041.4,3.738,3.738,0,1,0,3.738-3.738Z" transform="translate(-312 -726)" fill="#bebebe" fill-rule="evenodd"/>
  </g>
</svg>
