<svg xmlns="http://www.w3.org/2000/svg" width="13.375" height="13.313" viewBox="0 0 13.375 13.313">
  <path id="link-icon" d="M-6.187-14.625q-.125,0-.281.188a.811.811,0,0,0-.187.344.646.646,0,0,0,.063.375.485.485,0,0,0,.25.281,2.857,2.857,0,0,0,.469.125h2.188l-3.125,3.125Q-9.938-7-10-6.812a.569.569,0,0,0,.063.438.673.673,0,0,0,.375.344.609.609,0,0,0,.469,0q.219-.094,3.281-3.219l3.125-3.062v1.188a7.8,7.8,0,0,0,.063,1.281.563.563,0,0,0,.375.406.544.544,0,0,0,.75-.125l.188-.187v-4a1.279,1.279,0,0,0-.094-.594.508.508,0,0,0-.25-.219,3.257,3.257,0,0,0-.656-.125H-4A16.375,16.375,0,0,0-6.187-14.625Zm-6.937,2a1.769,1.769,0,0,0-.969.594A2.333,2.333,0,0,0-14.625-11q-.063.312-.062,4t.063,4A1.9,1.9,0,0,0-13.5-1.562l.375.188h8.25l.375-.187A1.9,1.9,0,0,0-3.375-3a22.507,22.507,0,0,0,.063-2.375V-6.937a3.545,3.545,0,0,0-.125-.719.486.486,0,0,0-.25-.25A.737.737,0,0,0-4-8a.737.737,0,0,0-.312.094.474.474,0,0,0-.25.281,4.164,4.164,0,0,0-.125.688v3.875l-.375.375h-7.875l-.375-.375v-7.875l.375-.375h3.875a4.164,4.164,0,0,0,.688-.125.474.474,0,0,0,.281-.25A.737.737,0,0,0-8-12a.737.737,0,0,0-.094-.312.486.486,0,0,0-.25-.25,3.546,3.546,0,0,0-.719-.125H-10.75A21.341,21.341,0,0,0-13.125-12.625Z" transform="translate(14.688 14.688)" fill="#887852"/>
</svg>
