<svg xmlns="http://www.w3.org/2000/svg" width="74.414" height="53.007" viewBox="0 0 74.414 53.007">
  <g id="about-prog" transform="translate(0 -3196.298)">
    <g id="Group_48720" data-name="Group 48720" transform="translate(0 3196.299)" opacity="0">
      <path id="Polygon_2" data-name="Polygon 2" d="M24.465,0,48.93,37.717H0Z" transform="translate(25.484 15.291)" fill="#a1a9ae" opacity="0.699"/>
      <path id="Polygon_3" data-name="Polygon 3" d="M16.82,0l16.82,27.523H0Z" transform="translate(8.155 25.484)" fill="#a1a9ae" opacity="0.703"/>
      <circle id="Ellipse_9919" data-name="Ellipse 9919" cx="7.645" cy="7.645" r="7.645" transform="translate(0 0)" fill="#444848" opacity="0.699"/>
    </g>
    <g id="buildings-2" transform="translate(15.002 3201.304)">
      <path id="Path_122786" data-name="Path 122786" d="M11.4,34H6.3C3.44,34,2,32.557,2,29.7V6.3C2,3.44,3.44,2,6.3,2h8.6c2.86,0,4.3,1.44,4.3,4.3V10" fill="none" stroke="#756b65" stroke-linecap="round" stroke-linejoin="round" stroke-miterlimit="10" stroke-width="3"/>
      <path id="Path_122787" data-name="Path 122787" d="M28.038,10.839V33.157c0,3.22-1.6,4.84-4.819,4.84H11.539C8.32,38,6.7,36.377,6.7,33.157V10.839C6.7,7.62,8.32,6,11.539,6H23.218C26.438,6,28.038,7.62,28.038,10.839Z" transform="translate(4.699 3.999)" fill="none" stroke="#756b65" stroke-linecap="round" stroke-linejoin="round" stroke-miterlimit="10" stroke-width="3"/>
      <path id="Path_122788" data-name="Path 122788" d="M13.4,10V6.3c0-2.86,1.44-4.3,4.3-4.3h8.6c2.86,0,4.3,1.44,4.3,4.3V29.7c0,2.86-1.44,4.3-4.3,4.3h-4.96" transform="translate(11.398)" fill="none" stroke="#756b65" stroke-linecap="round" stroke-linejoin="round" stroke-miterlimit="10" stroke-width="3"/>
      <path id="Path_122789" data-name="Path 122789" d="M10,11h8" transform="translate(7.998 8.998)" fill="none" stroke="#756b65" stroke-linecap="round" stroke-linejoin="round" stroke-miterlimit="10" stroke-width="3"/>
      <path id="Path_122790" data-name="Path 122790" d="M10,14h8" transform="translate(7.998 11.998)" fill="none" stroke="#756b65" stroke-linecap="round" stroke-linejoin="round" stroke-miterlimit="10" stroke-width="3"/>
      <path id="Path_122791" data-name="Path 122791" d="M12,25V19" transform="translate(9.998 16.997)" fill="none" stroke="#756b65" stroke-linecap="round" stroke-linejoin="round" stroke-miterlimit="10" stroke-width="3"/>
    </g>
  </g>
</svg>
