<svg id="Emdad_logo_11" xmlns="http://www.w3.org/2000/svg" width="154.842" height="80" viewBox="0 0 154.842 80">
  <g id="Group_56563" data-name="Group 56563">
    <g id="Group_56557" data-name="Group 56557" transform="translate(127.439)">
      <path id="Path_108525" data-name="Path 108525" d="M605.631,61.095l0,.028h0v-.028c3.031-24.208,10.211-38.026,10.211-38.026l-10.211-6.185Z" transform="translate(-605.628 -13.331)" fill="#fff"/>
      <path id="Path_108526" data-name="Path 108526" d="M633.363,0a2.442,2.442,0,1,0,1.244.342A2.442,2.442,0,0,0,633.363,0Z" transform="translate(-625.597 -0.001)" fill="#fff"/>
      <path id="Path_108527" data-name="Path 108527" d="M688.416,53.624a2.163,2.163,0,1,0,1.863-1.056,2.156,2.156,0,0,0-1.863,1.056" transform="translate(-670.755 -41.507)" fill="#fff"/>
      <path id="Path_108528" data-name="Path 108528" d="M718.585,116.745a1.844,1.844,0,1,0,3.429.96v-.032a1.843,1.843,0,0,0-3.429-.928" transform="translate(-694.611 -91.465)" fill="#fff"/>
      <path id="Path_108530" data-name="Path 108530" d="M607.276,89.5c4.876-15.108,19.2-26.974,19.2-26.974l-6.812-8.779C610.632,69.534,607.276,89.5,607.276,89.5" transform="translate(-606.929 -42.441)" fill="#fff"/>
      <path id="Path_108532" data-name="Path 108532" d="M606.21,134.443c8.364-10.49,23.275-15.75,23.275-15.75l-2.739-8.949c-11.869,9.844-20.536,24.7-20.536,24.7" transform="translate(-606.088 -86.651)" fill="#fff"/>
    </g>
    <g id="Group_56556" data-name="Group 56556" transform="translate(0 3.548)">
      <g id="Group_56562" data-name="Group 56562" transform="translate(0.158 49.482)">
        <path id="Path_108533" data-name="Path 108533" d="M.749,253.647H8.593v1.342H2.117v4.289H8.536v1.337H2.117v5.378H8.536v1.341H.749Z" transform="translate(-0.749 -253.304)" fill="#fff"/>
        <path id="Path_108534" data-name="Path 108534" d="M48.193,269.614h1.3v1.749a5.058,5.058,0,0,1,1.4-1.412,3.937,3.937,0,0,1,2.076-.6,3.459,3.459,0,0,1,1.4.288,3.013,3.013,0,0,1,1.08.767,4.125,4.125,0,0,1,.726,1.372,4.842,4.842,0,0,1,1.625-1.809,3.834,3.834,0,0,1,2.1-.617,3.28,3.28,0,0,1,1.854.529,3.162,3.162,0,0,1,1.192,1.479,7.915,7.915,0,0,1,.39,2.849v5.525H62v-5.525a7.215,7.215,0,0,0-.233-2.239,2.008,2.008,0,0,0-.794-.98,2.349,2.349,0,0,0-1.34-.374,2.922,2.922,0,0,0-1.729.558,3.223,3.223,0,0,0-1.144,1.49,9.426,9.426,0,0,0-.362,3.108v3.963H55.1v-5.181a9.025,9.025,0,0,0-.227-2.49,2.09,2.09,0,0,0-.8-1.051,2.307,2.307,0,0,0-1.349-.4,2.917,2.917,0,0,0-1.689.544,3.226,3.226,0,0,0-1.164,1.466,7.912,7.912,0,0,0-.379,2.819v4.288h-1.3Z" transform="translate(-38.21 -265.706)" fill="#fff"/>
        <path id="Path_108535" data-name="Path 108535" d="M136.437,256.92a3.926,3.926,0,0,0-3.472,2.036,4.093,4.093,0,0,0,.005,4.089,3.988,3.988,0,0,0,1.472,1.519,3.854,3.854,0,0,0,1.985.545,4.069,4.069,0,0,0,2.025-.541,3.762,3.762,0,0,0,1.472-1.458,4.165,4.165,0,0,0,.516-2.074,4.025,4.025,0,0,0-1.156-2.935,3.834,3.834,0,0,0-2.849-1.181m5.206-4.9v14.03h-1.285v-1.74a5.542,5.542,0,0,1-1.837,1.5,5.129,5.129,0,0,1-5.9-1.055,5.224,5.224,0,0,1-1.522-3.792,5.131,5.131,0,0,1,1.534-3.741,5.015,5.015,0,0,1,3.7-1.552,4.772,4.772,0,0,1,2.257.529,5.135,5.135,0,0,1,1.772,1.592v-5.77Z" transform="translate(-103.671 -252.016)" fill="#fff"/>
        <path id="Path_108536" data-name="Path 108536" d="M198.379,270.611a3.921,3.921,0,0,0-3.47,2.035,4.1,4.1,0,0,0,0,4.089,4.006,4.006,0,0,0,1.473,1.519,3.852,3.852,0,0,0,1.984.545,4.075,4.075,0,0,0,2.027-.541,3.784,3.784,0,0,0,1.473-1.458,4.191,4.191,0,0,0,.513-2.074,4.014,4.014,0,0,0-1.156-2.935,3.827,3.827,0,0,0-2.848-1.181m5.2-1v10.123H202.3V278a5.575,5.575,0,0,1-1.836,1.5,4.988,4.988,0,0,1-2.229.5,4.935,4.935,0,0,1-3.67-1.559,5.223,5.223,0,0,1-1.523-3.792,5.129,5.129,0,0,1,1.537-3.741,5.005,5.005,0,0,1,3.693-1.553,4.775,4.775,0,0,1,2.258.529,5.154,5.154,0,0,1,1.771,1.592v-1.863Z" transform="translate(-152.579 -265.706)" fill="#fff"/>
        <path id="Path_108537" data-name="Path 108537" d="M260.334,256.92a3.923,3.923,0,0,0-3.472,2.036,4.1,4.1,0,0,0,0,4.089,4.008,4.008,0,0,0,1.475,1.519,3.847,3.847,0,0,0,1.984.545,4.082,4.082,0,0,0,2.027-.541,3.781,3.781,0,0,0,1.472-1.458,4.185,4.185,0,0,0,.516-2.074,4.018,4.018,0,0,0-1.156-2.935,3.831,3.831,0,0,0-2.849-1.181m5.2-4.9v14.03h-1.283v-1.74a5.572,5.572,0,0,1-1.838,1.5,5.129,5.129,0,0,1-5.9-1.055A5.231,5.231,0,0,1,255,260.958a5.131,5.131,0,0,1,1.535-3.741,5.007,5.007,0,0,1,3.692-1.552,4.771,4.771,0,0,1,2.258.529,5.171,5.171,0,0,1,1.772,1.592v-5.77Z" transform="translate(-201.498 -252.016)" fill="#fff"/>
      </g>
      <g id="Group_56561" data-name="Group 56561" transform="translate(0 69.259)">
        <path id="Path_108564" data-name="Path 108564" d="M175.154,11.195h-4.038c-.318,0-.591-.009-.82-.031a3.558,3.558,0,0,1-.584-.09,1.315,1.315,0,0,1-.391-.166.7.7,0,0,1-.23-.238.868.868,0,0,1-.112-.313,2.5,2.5,0,0,1-.028-.4,2.554,2.554,0,0,1,.012-.29A2.387,2.387,0,0,1,169,9.418l-.516-.05c-.022.136-.04.277-.054.42s-.022.267-.022.368a2.34,2.34,0,0,0,.036.422,1.3,1.3,0,0,0,.13.384,1.137,1.137,0,0,0,.254.324,1.479,1.479,0,0,0,.416.253,2.733,2.733,0,0,0,.609.166,5.384,5.384,0,0,0,.836.056h5.033V8.325h-.568Z" transform="translate(-132.971 -6.573)" fill="#fff"/>
        <path id="Path_108565" data-name="Path 108565" d="M188.486,1.168a.344.344,0,0,0,.259-.106.356.356,0,0,0,.1-.258.36.36,0,0,0-.1-.255.346.346,0,0,0-.259-.106.357.357,0,0,0-.256.106.347.347,0,0,0-.109.255.343.343,0,0,0,.109.258.356.356,0,0,0,.256.106" transform="translate(-148.536 -0.351)" fill="#fff"/>
        <path id="Path_108566" data-name="Path 108566" d="M183.012,1.168a.343.343,0,0,0,.256-.106A.35.35,0,0,0,183.373.8a.354.354,0,0,0-.105-.255.345.345,0,0,0-.256-.106.358.358,0,0,0-.256.106.348.348,0,0,0-.109.255.344.344,0,0,0,.109.258.356.356,0,0,0,.256.106" transform="translate(-144.213 -0.351)" fill="#fff"/>
        <rect id="Rectangle_14315" data-name="Rectangle 14315" width="0.568" height="5.19" transform="translate(44.352 0.003)" fill="#fff"/>
        <path id="Path_108567" data-name="Path 108567" d="M254.771,28.713a.342.342,0,0,0-.257.106.369.369,0,0,0,0,.512.345.345,0,0,0,.257.108.36.36,0,0,0,.258-.108.361.361,0,0,0,0-.512.357.357,0,0,0-.258-.106" transform="translate(-200.877 -22.671)" fill="#fff"/>
        <path id="Path_108568" data-name="Path 108568" d="M270.657,1.168A.359.359,0,0,0,271.018.8a.357.357,0,0,0-.1-.255.352.352,0,0,0-.257-.106A.348.348,0,0,0,270.4.55a.338.338,0,0,0-.109.255.334.334,0,0,0,.109.258.346.346,0,0,0,.254.106" transform="translate(-213.417 -0.351)" fill="#fff"/>
        <path id="Path_108569" data-name="Path 108569" d="M233.27,4.622H231.6a.49.49,0,0,1-.363-.142A1.1,1.1,0,0,1,231,4.1a3.236,3.236,0,0,1-.153-.546c-.037-.2-.072-.417-.1-.636a2.321,2.321,0,0,0-.166-.593,1.44,1.44,0,0,0-.308-.451,1.333,1.333,0,0,0-.452-.287,1.629,1.629,0,0,0-.588-.1,3.094,3.094,0,0,0-.575.05c-.173.035-.348.078-.515.128v.479c.066-.016.135-.034.212-.051l.224-.045c.073-.012.148-.021.217-.03S228.93,2,228.985,2a1.336,1.336,0,0,1,.673.15,1.176,1.176,0,0,1,.406.392,1.839,1.839,0,0,1,.221.543c.047.2.086.4.119.6a1.774,1.774,0,0,0,.055.255,1.616,1.616,0,0,0,.087.255,1.4,1.4,0,0,0,.127.233.821.821,0,0,0,.17.187h-3.562a2.4,2.4,0,0,1-1.186-.261c0-.041.01-.084.015-.128s.007-.084.007-.132V1.756h-.568V3.922a1.568,1.568,0,0,1-.033.349.456.456,0,0,1-.1.212.338.338,0,0,1-.174.108.981.981,0,0,1-.27.031h-5.211V1.752h-.568v2.87a4.286,4.286,0,0,1-.064.791,1.47,1.47,0,0,1-.241.589,1.308,1.308,0,0,1-.483.409,2.823,2.823,0,0,1-.8.245l.073.537a4.114,4.114,0,0,0,.866-.227,1.922,1.922,0,0,0,.624-.386,1.691,1.691,0,0,0,.4-.584,2.7,2.7,0,0,0,.185-.809h5.378a1.021,1.021,0,0,0,.486-.1.8.8,0,0,0,.308-.266,1.872,1.872,0,0,0,.26.155,1.791,1.791,0,0,0,.294.116,2.567,2.567,0,0,0,.359.073c.048.005.1.008.153.012a.441.441,0,0,0,.1.01h6.76V0h-.571Z" transform="translate(-171.812)" fill="#fff"/>
        <rect id="Rectangle_14316" data-name="Rectangle 14316" width="0.568" height="5.19" transform="translate(63.631 0.003)" fill="#fff"/>
        <path id="Path_108570" data-name="Path 108570" d="M2.522,1.117H2.328L0,6.048H.667l.749-1.586h2l.741,1.552.016.034H4.82l-2.283-4.9Zm.629,2.766H1.692l.731-1.549Z" transform="translate(0 -0.882)" fill="#fff"/>
        <rect id="Rectangle_14317" data-name="Rectangle 14317" width="0.573" height="5.051" transform="translate(5.273 0.115)" fill="#fff"/>
        <path id="Path_108571" data-name="Path 108571" d="M44.2,1.116h-.819L41.535,2.847V1.116h-.607V6.047h.607V3.894l2.009,2.134.018.02h.8L41.818,3.338Z" transform="translate(-32.316 -0.881)" fill="#fff"/>
        <path id="Path_108572" data-name="Path 108572" d="M61.968,2.041a1.316,1.316,0,0,0-.739-.214,1.548,1.548,0,0,0-.752.189,1.906,1.906,0,0,0-.525.436V.545h-.576V5.6h.576V4.231a4.591,4.591,0,0,1,.064-.955,1.232,1.232,0,0,1,.413-.648,1.078,1.078,0,0,1,.708-.262.874.874,0,0,1,.55.163.9.9,0,0,1,.289.5,4.4,4.4,0,0,1,.047.809V5.6H62.6V3.705a2.918,2.918,0,0,0-.152-1.1,1.283,1.283,0,0,0-.479-.569" transform="translate(-46.882 -0.43)" fill="#fff"/>
        <path id="Path_108573" data-name="Path 108573" d="M79.855,6.638a1.76,1.76,0,0,0-1.458.7,2,2,0,0,0,.079,2.57,1.76,1.76,0,0,0,1.406.592,2.023,2.023,0,0,0,.723-.122,1.841,1.841,0,0,0,.58-.362,2.184,2.184,0,0,0,.452-.616l.025-.055-.487-.254-.028.049a2.155,2.155,0,0,1-.378.492,1.376,1.376,0,0,1-.419.238,1.471,1.471,0,0,1-.51.092,1.216,1.216,0,0,1-.9-.38,1.392,1.392,0,0,1-.376-.917h3.2V8.6a2,2,0,0,0-.406-1.254,1.818,1.818,0,0,0-1.5-.712M78.623,8.151A1.43,1.43,0,0,1,79,7.515a1.254,1.254,0,0,1,.863-.323,1.379,1.379,0,0,1,.58.129,1.2,1.2,0,0,1,.444.337,1.4,1.4,0,0,1,.237.492Z" transform="translate(-61.562 -5.241)" fill="#fff"/>
        <path id="Path_108574" data-name="Path 108574" d="M101.566,1.827a1.787,1.787,0,0,0-.806.181,1.915,1.915,0,0,0-.559.425V.545h-.577V5.6h.577V5.052a1.828,1.828,0,0,0,.537.441,1.731,1.731,0,0,0,.815.194,1.829,1.829,0,0,0,1.34-.563,1.878,1.878,0,0,0,.555-1.36,1.9,1.9,0,0,0-.55-1.37,1.8,1.8,0,0,0-1.333-.566m1.3,1.923a1.411,1.411,0,0,1-.183.691,1.33,1.33,0,0,1-.495.506,1.306,1.306,0,0,1-.674.18,1.29,1.29,0,0,1-.958-.4,1.363,1.363,0,0,1-.39-.993,1.42,1.42,0,0,1,.173-.7,1.292,1.292,0,0,1,.5-.491,1.382,1.382,0,0,1,.685-.184,1.307,1.307,0,0,1,.663.181,1.354,1.354,0,0,1,.5.515,1.413,1.413,0,0,1,.186.694" transform="translate(-78.661 -0.43)" fill="#fff"/>
        <path id="Path_108575" data-name="Path 108575" d="M121.32,6.8a1.562,1.562,0,0,0-.351.329v-.4h-.584v3.677h.584V9.142a5.385,5.385,0,0,1,.085-1.213,1.132,1.132,0,0,1,.305-.557.6.6,0,0,1,.4-.171.55.55,0,0,1,.219.056l.045.022.3-.482-.053-.029a.852.852,0,0,0-.951.033" transform="translate(-95.053 -5.24)" fill="#fff"/>
        <path id="Path_108576" data-name="Path 108576" d="M133.281,7.273a1.827,1.827,0,0,0-.537-.442,1.741,1.741,0,0,0-.821-.193,1.832,1.832,0,0,0-1.342.566,1.864,1.864,0,0,0-.555,1.354,1.914,1.914,0,0,0,.55,1.375,1.864,1.864,0,0,0,2.143.381,1.965,1.965,0,0,0,.563-.423v.516h.569V6.731h-.569Zm-.362.32a1.365,1.365,0,0,1,.392.993,1.412,1.412,0,0,1-.174.7,1.265,1.265,0,0,1-.5.489,1.335,1.335,0,0,1-1.847-.512,1.4,1.4,0,0,1-.187-.69,1.425,1.425,0,0,1,.184-.691,1.357,1.357,0,0,1,.493-.505,1.339,1.339,0,0,1,.678-.18,1.294,1.294,0,0,1,.959.4" transform="translate(-102.665 -5.241)" fill="#fff"/>
        <path id="Path_108577" data-name="Path 108577" d="M152.661,2.116V.794h-.573V2.116h-.626v.512h.626V5.793h.573V2.628h.726V2.116Z" transform="translate(-119.591 -0.627)" fill="#fff"/>
      </g>
      <g id="Group_56558" data-name="Group 56558">
        <path id="Path_108560" data-name="Path 108560" d="M19.441,92.356c-.41-5.044-2.8-6.616-7.092-6.616-3.89,0-7.1,1.163-7.572,5.321H.82c.954-6.345,5.66-8.733,11.529-8.733,6.819,0,10.913,3.141,10.913,10.166v20.328H0v-3.478H19.441Z" transform="translate(0 -68.553)" fill="#fff"/>
        <rect id="Rectangle_14313" data-name="Rectangle 14313" width="3.68" height="44.27" transform="translate(30.336 0)" fill="#fff"/>
        <path id="Path_108561" data-name="Path 108561" d="M215.414,92.356c-.408-5.044-2.8-6.616-7.095-6.616-3.886,0-7.367,1.163-7.912,5.321h-3.614c.955-6.345,5.661-8.733,11.526-8.733,6.823,0,10.913,3.141,10.913,10.166v16.85h9.687v3.478H195.973v-3.478h19.441Z" transform="translate(-154.736 -68.553)" fill="#fff"/>
        <path id="Path_108562" data-name="Path 108562" d="M378.86,78.547c-7.439,0-10.509,7.231-10.509,12.962,0,5.659,3.07,12.958,10.509,12.958s10.367-6.751,10.367-12.958c0-5.731-2.935-12.962-10.367-12.962m-27.9,28.649v-3.478h5.455c5.046,0,8.119-3.141,8.119-8.462V91.508c0-7.508,4.5-16.306,14.327-16.306S393.18,84,393.18,91.508c0,7.635-4.5,16.3-14.321,16.3a13.1,13.1,0,0,1-11.8-6.617c-1.3,3.069-4.093,6-9.755,6Z" transform="translate(-277.109 -62.926)" fill="#fff"/>
        <rect id="Rectangle_14314" data-name="Rectangle 14314" width="3.686" height="44.27" transform="translate(121.842)" fill="#fff"/>
        <path id="Path_108563" data-name="Path 108563" d="M5.239,3.3l-.475-.384-.218.568a.478.478,0,0,1-.275.087H2.833V2.675c0-1.194.589-1.194.783-1.194.122,0,.446,0,.48.543l.026.427h1.61l-.037-.49A2.05,2.05,0,0,0,3.639,0C2.154,0,1.267,1,1.267,2.688v.879H.6L0,5.1H4.21a1.819,1.819,0,0,0,1.6-.844L6.032,3.9Z" transform="translate(120.236 45.121)" fill="#fff"/>
      </g>
    </g>
  </g>
</svg>
