<svg id="smsWit" xmlns="http://www.w3.org/2000/svg" width="30" height="30" viewBox="0 0 30 30">
  <g id="vuesax_outline_sms" data-name="vuesax/outline/sms">
    <g id="sms">
      <path id="Vector" d="M19.688,23.125H7.188C2.625,23.125,0,20.5,0,15.938V7.188C0,2.625,2.625,0,7.188,0h12.5c4.563,0,7.188,2.625,7.188,7.188v8.75C26.875,20.5,24.25,23.125,19.688,23.125ZM7.188,1.875c-3.575,0-5.312,1.738-5.312,5.313v8.75c0,3.575,1.738,5.313,5.313,5.313h12.5c3.575,0,5.313-1.738,5.313-5.312V7.188c0-3.575-1.737-5.312-5.312-5.312Z" transform="translate(1.563 3.438)" fill="#fff"/>
      <path id="Vector-2" data-name="Vector" d="M7.191,5.782a4.647,4.647,0,0,1-2.925-.987L.353,1.67A.934.934,0,0,1,1.516.207L5.428,3.332a2.983,2.983,0,0,0,3.512,0L12.853.207a.923.923,0,0,1,1.313.15.923.923,0,0,1-.15,1.313L10.1,4.795A4.587,4.587,0,0,1,7.191,5.782Z" transform="translate(7.809 10.305)" fill="#fff"/>
      <path id="Vector-3" data-name="Vector" d="M0,0H30V30H0Z" fill="none" opacity="0"/>
    </g>
  </g>
</svg>
