<svg xmlns="http://www.w3.org/2000/svg" xmlns:xlink="http://www.w3.org/1999/xlink" width="140" height="140.875" viewBox="0 0 140 140.875">
  <defs>
    <clipPath id="clip-path">
      <rect id="Rectangle_15935" data-name="Rectangle 15935" width="140" height="140.875" transform="translate(350.861 982.209)"/>
    </clipPath>
  </defs>
  <g id="img1" transform="translate(-350.861 -982.209)" clip-path="url(#clip-path)">
    <path id="Path_128627" data-name="Path 128627" d="M512.886,1090.707q-17.314-16.18-35.436-31.447l-.129-.5c6.487-20.868,13.287-41.659,18.522-62.818a3.1,3.1,0,1,0-6.042-1.365c-3.386,18.458-9.04,36.4-15.125,54.251-2.911-10.668-6.047-21.25-9.566-31.669a2.427,2.427,0,0,0-4.69.953c.707,14.407,4.5,28.184,8.918,41.8a339.016,339.016,0,0,0-41.3,39.551c-1.131,1.7-3.734,3.33-2.857,5.657,2.124,4.085,8.134-1.813,10.636-3.209,11.342-8.241,17.9-21.123,28.157-30.5,1.419-1.418,2.872-2.827,4.358-4.206-6.139,17.759-12.079,35.571-16,53.85-1.216,5.646,7.332,7.374,8.353,1.62l1.45-7.99c3.018-14.446,6.943-28.678,11.189-42.836,1.492,4.43,2.973,8.854,4.358,13.3,3.924,13.194,7.809,26.553,11.009,39.948.734,3.126,5.643,1.763,4.613-1.321-4.722-18.624-9.03-37.53-13.754-56.315,6.33,6.669,12.712,13.29,18.926,20.064,2.791,3.034,5.582,6.063,8.332,9.123C510.712,1100.916,517.09,1094.719,512.886,1090.707Z" transform="translate(-53.608 -7.202)" fill="#a70098" fill-rule="evenodd"/>
    <path id="Path_128628" data-name="Path 128628" d="M448.474,988.21c-22.934-10.737-50.039-7.192-70.2,7.865a4.237,4.237,0,0,0-1.764,3.654c-66.136,52.175,9.036,159,81.164,111.7a2.4,2.4,0,0,0-2.338-4.173c-32.167,16.239-73.5,4.972-90.981-27.04-14.87-25.276-7.623-58.733,15.012-76.688a4.218,4.218,0,0,0,3.95-.633c11.673-8.968,26.193-14.2,40.972-13.4,47.41,1.542,79.306,58.67,51.132,98.436a1.909,1.909,0,0,0,3.185,2.1C504.415,1055.61,487.043,1004.488,448.474,988.21Z" transform="translate(-0.059 0.034)" fill="#10145b" fill-rule="evenodd"/>
  </g>
</svg>
