<svg xmlns="http://www.w3.org/2000/svg" xmlns:xlink="http://www.w3.org/1999/xlink" width="140" height="151.375" viewBox="0 0 140 151.375">
  <defs>
    <clipPath id="clip-path">
      <rect id="Rectangle_15941" data-name="Rectangle 15941" width="140" height="151.375" transform="translate(1267.114 982.28)"/>
    </clipPath>
  </defs>
  <g id="img2" transform="translate(-1267.114 -982.28)" clip-path="url(#clip-path)">
    <path id="Path_128671" data-name="Path 128671" d="M1472.978,1114.3c-10.938-55.564-95.7-68.37-103.846-4.685-2.2,21.817,22.946,40.687,43.3,32.939,4.331-1.655,1.616-8.181-2.6-6.274-16.039,7.192-37.077-8.728-34.965-26.124,2.846-33.3,39.965-46.153,66.252-28.554,15.911,9.551,24.692,28.5,24.312,46.765a4.713,4.713,0,0,0,1.848,3.835c-2.561,28.094-29.87,47.151-56.419,50.823a2.682,2.682,0,0,0-.16,5.249c26.172,5.41,49.067-16.767,58.172-39.478.817-2.2,3.372-10.424,3.838-16.464a4.679,4.679,0,0,0,2.044-3.993A68.8,68.8,0,0,0,1472.978,1114.3Z" transform="translate(-71.641 -59.681)" fill="#10145b" fill-rule="evenodd"/>
    <path id="Path_128672" data-name="Path 128672" d="M1372.792,1046.215c-17.88-17.355-42.579-4.506-30.666-2.834,11.137-4.973,24.473,1.48,30.889,11.12,12.56,19.544-4.961,45.793-25.6,50.374-29.609,5.323-61.321-21.021-61.1-51.152a4.64,4.64,0,0,0-1.346-3.342c.713-28.219,27.283-54.42,55.985-51.057a4.664,4.664,0,1,0,.588-9.3c-33.664-.928-59.708,27.846-62.9,60.072a4.658,4.658,0,0,0-1.649,3.618c.449,31.391,29.1,57.833,59.8,59.131C1369.417,1115.827,1399.454,1071.329,1372.792,1046.215Z" transform="translate(-6.972 -5.557)" fill="#10145b" fill-rule="evenodd"/>
    <path id="Path_128673" data-name="Path 128673" d="M1551.651,982.135c-5.2-1.02-10.225,3.928-8.193,9.125,2.017,6,10.807,6.25,13.588.79A6.675,6.675,0,0,0,1551.651,982.135Z" transform="translate(-193.95 0.066)" fill="#a70098" fill-rule="evenodd"/>
    <path id="Path_128674" data-name="Path 128674" d="M1697.862,1050.12c-4.845-4.548-12.219-1.319-11.844,5.407a8.31,8.31,0,0,0,9.515,7.5C1701.786,1061.78,1702.487,1053.723,1697.862,1050.12Z" transform="translate(-294.475 -46.329)" fill="#a70098" fill-rule="evenodd"/>
    <path id="Path_128675" data-name="Path 128675" d="M1630.654,999.975c-6.176-3.288-12.506,2.279-10.154,8.764,1.23,3.473,4.566,5.086,8.092,4.783C1635.514,1012.58,1636.685,1003.053,1630.654,999.975Z" transform="translate(-248.077 -11.884)" fill="#a70098" fill-rule="evenodd"/>
    <path id="Path_128676" data-name="Path 128676" d="M1268.207,1371.318c-2.926,4.091-.2,10.231,4.667,10.843a6.973,6.973,0,0,0,7.171-11.565A7.434,7.434,0,0,0,1268.207,1371.318Z" transform="translate(0.055 -271.265)" fill="#a70098" fill-rule="evenodd"/>
    <path id="Path_128677" data-name="Path 128677" d="M1412.218,1453.98c2.724,9.489,16.434,5.018,14.066-4.189C1423.31,1441.195,1410.165,1445.131,1412.218,1453.98Z" transform="translate(-101.87 -325.39)" fill="#a70098" fill-rule="evenodd"/>
    <path id="Path_128678" data-name="Path 128678" d="M1343.3,1420.352c-8.306-4.967-14.753,4.863-9.245,11.6C1343.751,1441.352,1353.759,1426.929,1343.3,1420.352Z" transform="translate(-45.636 -307.115)" fill="#a70098" fill-rule="evenodd"/>
    <path id="Path_128679" data-name="Path 128679" d="M1443.928,1192c-11.476-.261-10.02,16.829,1.307,14.66C1453.759,1204.4,1452.849,1192.8,1443.928,1192Z" transform="translate(-118.739 -147.549)" fill="#a70098" fill-rule="evenodd"/>
    <path id="Path_128680" data-name="Path 128680" d="M1526.763,1233.129c-4.608-.861-9.325,2.757-8.7,7.685.511,5.148,4.958,7.766,9.732,6.372C1534.894,1244.747,1534.5,1234.184,1526.763,1233.129Z" transform="translate(-176.383 -176.37)" fill="#a70098" fill-rule="evenodd"/>
  </g>
</svg>
