<svg xmlns="http://www.w3.org/2000/svg" xmlns:xlink="http://www.w3.org/1999/xlink" width="140" height="139.125" viewBox="0 0 140 139.125">
  <defs>
    <clipPath id="clip-path">
      <rect id="Rectangle_15942" data-name="Rectangle 15942" width="140" height="139.125" transform="translate(2946 983)"/>
    </clipPath>
  </defs>
  <g id="img4" transform="translate(-2946 -983)" clip-path="url(#clip-path)">
    <path id="Path_128681" data-name="Path 128681" d="M3094.776,1082.937c-13.948-6.6-29.275-6.436-44.309-3.818,10.936-14.82,22.6-29.138,36.615-41.168a1.884,1.884,0,0,0-2.324-2.96c-11.671,8.365-21.905,18.441-31.468,29.125-1.327-18.317,2.505-36.785.389-55.1-.529-1.99-.025-5.027-2.346-5.92-4.353-1.068-3.873,7.165-4.651,9.878-1.907,12.32.693,24.662.842,37.016.032.77.071,1.537.109,2.308-14.861-14.979-27.719-31.794-43.056-46.384a4.184,4.184,0,1,0-5.581,6.23c4.328,3.637,8.508,7.51,12.649,11.468,1.4.808,11.131,11.2,20.721,20.6-9.763.28-19.5-.858-29.272-1.453a299.539,299.539,0,0,0-35.081-.841,4.187,4.187,0,1,0,.833,8.318c15.215-2.083,30.684-2.031,46.1-1.4-8.576,6.745-20.864,22.442-23.278,25.353a154.007,154.007,0,0,1-20.855,21.453,2.416,2.416,0,0,0-.627,3.613,2.353,2.353,0,0,0,3.316.26c2.308-1.916,4.6-3.824,6.866-5.775,3.259-2.919,6.605-6.071,9.708-9.144,5.742-5.98,12.016-11.47,17.89-17.322,1.541,20.472,2.782,41,2.294,61.525a1.885,1.885,0,0,0,3.758.244,425.935,425.935,0,0,0,1.924-45.967c6.855,5.633,13.148,11.95,19.435,18.189a292.089,292.089,0,0,1,22.256,24.953c3.667,4.47,10.272-1.236,6.3-5.5-10.062-10.673-21.047-20.395-31.936-30.2,4.459-.25,9.234-1.146,10.875-1.351,8.51-1.5,16.539-5.2,25.189-5.811a53,53,0,0,1,16.807,1.006,35.935,35.935,0,0,1,7.844,2.818C3095.455,1088.605,3097.618,1084.212,3094.776,1082.937Zm-78.866-7.3c0-.017,0-.033,0-.049-.044-5.548-.154-11.084-.252-16.615,1.609-1.93,3.144-3.925,4.574-6.016.653-1.162,1.952-2.409,2.543-3.75,4.923.252,9.837.54,14.732.809a2.984,2.984,0,0,0,.885-.033,88.751,88.751,0,0,0,9.6,8.033c.266,3.654.614,7.31,1.05,10.936-3.637,4.2-7.189,8.475-10.7,12.751-4.207,1.036-8.351,2.173-12.4,3.314Q3020.862,1080.386,3015.909,1075.636Z" transform="translate(-13.069 -14.521)" fill="#10145b" fill-rule="evenodd"/>
    <path id="Path_128682" data-name="Path 128682" d="M3068.86,1008.611c-46.37-59.827-143.872-5.232-118.8,65.26,11.032,44.97,73.7,63.764,109.06,34.774a4.182,4.182,0,1,0-5.336-6.441c-37.822,30.394-98.562,3.426-100.706-45.386-5.684-51.523,54.78-86.471,97.521-58.578,25.019,17.6,40.148,55.2,23.073,82.9a3.044,3.044,0,1,0,5.235,3.105C3092.982,1060.269,3085.615,1029.3,3068.86,1008.611Z" transform="translate(-0.003 -0.001)" fill="#a70098" fill-rule="evenodd"/>
  </g>
</svg>
