<svg xmlns="http://www.w3.org/2000/svg" xmlns:xlink="http://www.w3.org/1999/xlink" width="140" height="140" viewBox="0 0 140 140">
  <defs>
    <clipPath id="clip-path">
      <rect id="Rectangle_15940" data-name="Rectangle 15940" width="140" height="140" transform="translate(3778 1770)"/>
    </clipPath>
  </defs>
  <g id="img5" transform="translate(-3778 -1770)" clip-path="url(#clip-path)">
    <path id="Path_128667" data-name="Path 128667" d="M4110.9,1891.631c2.37,1.491,4.72,2.954,6.954,4.517,6.25,4.3,12.249,9.824,14.43,17.158,1.831,5.847,10.67,2.487,8.136-3.079-5.073-11.406-16.661-17.779-27.764-22.079C4110.535,1887.272,4108.916,1890.449,4110.9,1891.631Z" transform="translate(-239.659 -85.178)" fill="#10145b" fill-rule="evenodd"/>
    <path id="Path_128668" data-name="Path 128668" d="M4029.544,2040.656c-9.142,4.87-16.243,14.936-15.206,25.586.935,8.876,6.464,16.936,13.918,21.815a33.5,33.5,0,0,1-4.834,2.951c-7.721,4.425-16.561,2.1-24.943,2.935a27.2,27.2,0,0,0-5.652.845,2.548,2.548,0,0,0-.578,4.634c13.392,6.867,30.039.812,40.695-8.839a26.162,26.162,0,0,0,16.471,1.652c2.754-.5,2.359-4.865-.475-4.823a25.83,25.83,0,0,1-13.654-4.183c-6.653-4.305-11.907-11.162-12.58-19.133-.134-10.895,9.8-20.566,20.56-21.019,15.478-1.051,28.028,16.808,21.884,31-1.254,2.915,3.318,4.815,4.506,1.877a26.862,26.862,0,0,0,1.432-4.442C4075.777,2048.141,4050.758,2028.646,4029.544,2040.656Z" transform="translate(-153.756 -192.738)" fill="#10145b" fill-rule="evenodd"/>
    <path id="Path_128669" data-name="Path 128669" d="M3953.811,1770.427a4.02,4.02,0,0,0-4.37.567c-42.252-10.422-45.684,64.845-3.338,57.461C3979.492,1825.053,3984.955,1782.479,3953.811,1770.427Zm-8.736,51.912c-30.506-1.015-29.449-53.044,2.862-46.652a4.052,4.052,0,0,0,2.857,2.865C3976.9,1785.11,3972.185,1823.257,3945.075,1822.339Z" transform="translate(-99.615 -0.001)" fill="#a70098" fill-rule="evenodd"/>
    <path id="Path_128670" data-name="Path 128670" d="M3806.45,1964.383a27.225,27.225,0,0,0-11.151.684,36.282,36.282,0,0,1,5.482-18.744c2.025-4.144,9.9-7.9,4.375-12.539a4.395,4.395,0,0,0-6.172,1.191c-7.034,9.512-8.556,21.247-9.41,32.656-24.048,16.291-8.125,58.317,24.763,47.656C3839.41,2006,3832.66,1966.691,3806.45,1964.383Zm5.307,44.844c-29.461,14.229-40.038-37.29-10.531-38.116C3821.02,1970.61,3829.528,1999.923,3811.758,2009.227Z" transform="translate(0 -117.663)" fill="#a70098" fill-rule="evenodd"/>
  </g>
</svg>
